<mxfile host="app.diagrams.net" modified="2023-04-06T02:38:19.343Z" agent="Mozilla/5.0 (Windows NT 10.0; Win64; x64) AppleWebKit/537.36 (KHTML, like Gecko) Chrome/111.0.0.0 Safari/537.36 Edg/111.0.1661.62" version="21.1.2" etag="nm6oyTV8dXxBDWMfi1To" type="github">
  <diagram name="Trang-1" id="lFWnD7eT4lN2CKWP9j_K">
    <mxGraphModel>
      <root>
        <mxCell id="0" />
        <mxCell id="1" parent="0" />
      </root>
    </mxGraphModel>
  </diagram>
</mxfile>
